HIERARCHY
ROOT Hips
{
	OFFSET 0.000000 0.000000 0.000000
	CHANNELS 6 Xposition Yposition Zposition Zrotation Yrotation Xrotation 
	JOINT LeftUpLeg_virtual
	{
		OFFSET 0.000000 0.000000 0.000000
		CHANNELS 3 Zrotation Yrotation Xrotation
		JOINT LeftUpLeg
		{
			OFFSET 10.205400 -3.823500 0.155100
			CHANNELS 3 Zrotation Yrotation Xrotation
			JOINT LeftLeg
			{
				OFFSET 0.708757 -12.982077 0.567790
				CHANNELS 3 Zrotation Yrotation Xrotation
				JOINT LeftFoot
				{
					OFFSET -0.708756 -10.717838 -2.184338
					CHANNELS 3 Zrotation Yrotation Xrotation
					JOINT LeftToeBase
					{
						OFFSET 0.108149 -7.191104 7.560241
						CHANNELS 3 Zrotation Yrotation Xrotation
						End Site
						{
							OFFSET 0.000000 0.000000 0.000000
						}
					}
				}
			}
		}
	}
	JOINT RightUpLeg_virtual
	{
		OFFSET 0.000000 0.000000 0.000000
		CHANNELS 3 Zrotation Yrotation Xrotation
		JOINT RightUpLeg
		{
			OFFSET -10.205400 -3.823500 0.005500
			CHANNELS 3 Zrotation Yrotation Xrotation
			JOINT RightLeg
			{
				OFFSET -0.708756 -12.982134 0.610632
				CHANNELS 3 Zrotation Yrotation Xrotation
				JOINT RightFoot
				{
					OFFSET 0.708754 -10.717769 -1.945823
					CHANNELS 3 Zrotation Yrotation Xrotation
					JOINT RightToeBase
					{
						OFFSET -0.108140 -7.191069 7.372968
						CHANNELS 3 Zrotation Yrotation Xrotation
						End Site
						{
							OFFSET 0.000000 0.000000 0.000000
						}
					}
				}
			}
		}
	}
	JOINT Spine_virtual
	{
		OFFSET 0.000000 0.000000 0.000000
		CHANNELS 3 Zrotation Yrotation Xrotation
		JOINT Spine
		{
			OFFSET 0.000000 6.876099 0.125700
			CHANNELS 3 Zrotation Yrotation Xrotation
			JOINT Spine1
			{
				OFFSET 0.000000 8.022060 0.146608
				CHANNELS 3 Zrotation Yrotation Xrotation
				JOINT Spine2
				{
					OFFSET 0.000000 9.168068 0.167552
					CHANNELS 3 Zrotation Yrotation Xrotation
					JOINT Neck_virtual
					{
						OFFSET 0.000000 0.000000 0.000000
						CHANNELS 3 Zrotation Yrotation Xrotation
						JOINT Neck
						{
							OFFSET 0.000000 10.314075 0.188496
							CHANNELS 3 Zrotation Yrotation Xrotation
							JOINT Head
							{
								OFFSET 0.000000 7.643700 -2.377400
								CHANNELS 3 Zrotation Yrotation Xrotation
								End Site
								{
									OFFSET 0.000000 0.000000 0.000000
								}
							}
						}
					}
					JOINT LeftShoulder_virtual
					{
						OFFSET 0.000000 0.000000 0.000000
						CHANNELS 3 Zrotation Yrotation Xrotation
						JOINT LeftShoulder
						{
							OFFSET 4.392200 8.824978 0.174984
							CHANNELS 3 Zrotation Yrotation Xrotation
							JOINT LeftArm
							{
								OFFSET 8.771219 -2.981674 -0.026999
								CHANNELS 3 Zrotation Yrotation Xrotation
								JOINT LeftForeArm
								{
									OFFSET 8.512804 0.000000 -0.000000
									CHANNELS 3 Zrotation Yrotation Xrotation
									JOINT LeftHand
									{
										OFFSET 18.484802 0.000000 -0.000000
										CHANNELS 3 Zrotation Yrotation Xrotation
										End Site
										{
											OFFSET 0.000000 0.000000 0.000000
										}
									}
								}
							}
						}
					}
					JOINT RightShoulder_virtual
					{
						OFFSET 0.000000 0.000000 0.000000
						CHANNELS 3 Zrotation Yrotation Xrotation
						JOINT RightShoulder
						{
							OFFSET -4.392200 8.824993 0.141379
							CHANNELS 3 Zrotation Yrotation Xrotation
							JOINT RightArm
							{
								OFFSET -8.771282 -2.981682 -0.094208
								CHANNELS 3 Zrotation Yrotation Xrotation
								JOINT RightForeArm
								{
									OFFSET -8.494598 0.000000 0.000000
									CHANNELS 3 Zrotation Yrotation Xrotation
									JOINT RightHand
									{
										OFFSET -18.483803 0.000000 0.000001
										CHANNELS 3 Zrotation Yrotation Xrotation
										End Site
										{
											OFFSET 0.000000 0.000000 0.000000
										}
									}
								}
							}
						}
					}
				}
			}
		}
	}
}
MOTION
Frames: 7
Frame Time: 0.033333
0.708688 36.527390 7.017722 179.809634 -1.052160 179.717276 -3.221116 -0.105674 12.256371 0.084342 -6.629057 -11.914386 6.442965 10.313610 15.308223 1.334085 -0.027433 6.660859 0.000000 0.000000 0.000000 1.199292 0.616753 11.867117 -1.976948 4.327162 -4.955326 -8.625769 0.619151 10.805963 6.434594 3.228206 10.385590 0.000000 0.000000 0.000000 0.216177 1.979740 1.320596 -2.706594 -1.018251 -11.715035 -1.663975 -3.765205 4.358884 0.047129 -0.030834 -0.064548 -2.225981 -1.772194 6.649380 1.521006 -0.310926 -1.127240 0.000000 0.000000 0.000000 -0.270321 -0.681782 3.884693 6.718101 9.968778 -5.400778 2.997106 13.176015 -33.983094 -1.383492 -45.970636 -6.527911 0.000000 0.000000 0.000000 -4.706553 0.187338 3.072452 5.553104 -11.923306 -7.450083 19.907126 -22.737203 -39.742036 -6.241213 42.021878 -6.916517 0.000000 0.000000 0.000000 
0.711209 36.537193 7.020107 179.870122 -1.072089 179.520553 -3.241691 -0.088507 12.031441 -0.051673 -6.807912 -12.248347 6.237502 10.687911 14.972266 1.160973 -0.176244 6.223072 0.000000 0.000000 0.000000 1.325777 0.589482 11.931963 -2.096120 4.341327 -4.976865 -8.902670 0.587032 10.733311 6.185958 3.058483 10.319567 0.000000 0.000000 0.000000 0.257881 1.986511 1.503738 -2.730682 -0.997155 -11.618388 -1.596048 -3.758917 4.411626 0.010506 -0.029808 -0.088430 -2.292870 -1.412657 6.615842 1.448111 -0.403219 -1.202991 0.000000 0.000000 0.000000 -0.331776 -0.675572 3.970187 6.722008 9.957417 -5.417932 3.010259 13.266759 -34.051013 -1.263379 -45.937967 -6.611765 0.000000 0.000000 0.000000 -4.736063 0.188505 3.061805 5.573668 -11.930748 -7.514326 20.020977 -22.692689 -39.612054 -6.438889 42.120704 -7.106272 0.000000 0.000000 0.000000 
0.715464 36.535629 7.022808 179.862800 -1.093466 179.516960 -3.240582 -0.124147 12.058809 -0.030852 -6.803662 -12.323949 6.228560 10.706974 14.987844 1.128493 -0.191633 6.227743 0.000000 0.000000 0.000000 1.320617 0.556044 11.971305 -2.112358 4.313040 -5.027362 -8.871582 0.559748 10.713935 6.203004 3.083464 10.301549 0.000000 0.000000 0.000000 0.257017 2.002193 1.538310 -2.749640 -0.969447 -11.605748 -1.597253 -3.750013 4.419908 -0.013019 -0.039517 -0.048259 -2.228148 -1.348333 6.592245 1.481733 -0.388016 -1.194769 0.000000 0.000000 0.000000 -0.328083 -0.678338 3.841041 6.702758 9.871042 -5.455974 3.052250 13.306643 -34.052717 -1.222814 -45.967699 -6.636523 0.000000 0.000000 0.000000 -4.707103 0.216147 3.082636 5.609730 -12.031455 -7.656166 19.992461 -22.793332 -39.692248 -6.251887 42.170408 -6.967288 0.000000 0.000000 0.000000 
0.719271 36.535763 7.026098 179.865532 -1.089730 179.527438 -3.269831 -0.193359 12.077356 0.023687 -6.796439 -12.374223 6.264494 10.783306 15.026742 1.094478 -0.201728 6.228033 0.000000 0.000000 0.000000 1.315985 0.488242 11.975734 -2.118958 4.300828 -5.054906 -8.826628 0.513831 10.665411 6.234177 3.124105 10.317031 0.000000 0.000000 0.000000 0.247835 1.948935 1.576354 -2.774992 -0.942535 -11.588486 -1.580488 -3.717917 4.436701 -0.027336 -0.038243 -0.027721 -2.223918 -1.458495 6.593662 1.539444 -0.391743 -1.178916 0.000000 0.000000 0.000000 -0.254086 -0.660037 3.835722 6.784473 9.790894 -5.542263 2.932410 13.427305 -34.031629 -1.281621 -46.028457 -6.515836 0.000000 0.000000 0.000000 -4.662494 0.225309 2.979942 5.633138 -11.985144 -7.553690 20.064365 -22.915959 -39.654794 -6.338290 42.259306 -7.050617 0.000000 0.000000 0.000000 
0.721826 36.536026 7.030118 179.827392 -1.072376 179.521222 -3.279642 -0.164816 12.111266 0.016362 -6.731520 -12.376777 6.209524 10.870495 15.032440 1.062334 -0.216497 6.196434 0.000000 0.000000 0.000000 1.275815 0.499481 11.944158 -2.137700 4.308085 -5.022262 -8.831041 0.463605 10.651615 6.220318 3.129321 10.321267 0.000000 0.000000 0.000000 0.229583 1.897415 1.595061 -2.822234 -0.888712 -11.578951 -1.581120 -3.676778 4.418620 -0.038470 -0.020478 -0.102206 -2.166901 -1.485394 6.538896 1.672100 -0.328483 -1.213303 0.000000 0.000000 0.000000 -0.238045 -0.638879 3.854164 6.808060 9.605215 -5.504704 2.916392 13.532708 -34.137494 -1.178970 -45.883196 -6.504660 0.000000 0.000000 0.000000 -4.632182 0.212892 3.029631 5.677547 -11.982459 -7.512055 20.067565 -23.132418 -39.678741 -6.281418 42.313292 -7.055237 0.000000 0.000000 0.000000 
0.724730 36.537373 7.034652 179.905926 -0.994021 179.523763 -3.224292 -0.218104 12.098437 0.074839 -6.681207 -12.371597 6.197746 11.044494 15.089879 1.007274 -0.247777 6.196741 0.000000 0.000000 0.000000 1.323105 0.459933 11.868265 -2.131974 4.329174 -5.000346 -8.831832 0.549791 10.596646 6.254122 3.173707 10.350467 0.000000 0.000000 0.000000 0.252509 1.914613 1.617124 -2.810646 -0.835273 -11.584557 -1.510183 -3.668691 4.422813 -0.010482 -0.026237 -0.056357 -2.177479 -1.381084 6.467306 1.730398 -0.363167 -1.130698 0.000000 0.000000 0.000000 -0.212434 -0.609814 3.849677 6.891966 9.437067 -5.501007 2.888180 13.736054 -34.067300 -1.277655 -45.802846 -6.271804 0.000000 0.000000 0.000000 -4.655805 0.314289 3.001930 5.691532 -11.950515 -7.499827 20.112780 -23.462055 -39.754419 -6.183275 42.429579 -7.033051 0.000000 0.000000 0.000000 
0.728883 36.541286 7.037640 179.897334 -1.043928 179.520198 -3.250001 -0.201120 12.094579 0.128611 -6.636388 -12.369677 6.173944 11.126672 15.112191 0.948721 -0.276700 6.183391 0.000000 0.000000 0.000000 1.316581 0.423205 11.844220 -2.134692 4.305506 -4.920799 -8.834304 0.462259 10.537251 6.252876 3.182916 10.379879 0.000000 0.000000 0.000000 0.220684 1.675164 1.653789 -2.825426 -0.787521 -11.580213 -1.461934 -3.547936 4.392127 0.002971 0.041512 -0.104131 -2.147613 -1.358921 6.426841 1.787855 -0.403576 -1.108345 0.000000 0.000000 0.000000 -0.179094 -0.563341 3.854709 6.875975 9.194463 -5.646102 2.814811 13.878247 -34.118574 -1.281137 -45.747405 -6.110438 0.000000 0.000000 0.000000 -4.603799 0.338634 2.939823 5.703400 -11.917671 -7.493510 20.129420 -23.779700 -39.908420 -6.239529 42.497290 -7.168999 0.000000 0.000000 0.000000 
